<svg width="40" height="40" viewBox="0 0 40 40" fill="none" xmlns="http://www.w3.org/2000/svg">
<path d="M32 5.33333H8.00001C6.52668 5.33333 5.33334 6.52667 5.33334 8V32C5.33334 33.4733 6.52668 34.6667 8.00001 34.6667H21.3333V22.6667H17.3333V18.6667H21.3333V16.5187C21.3333 12.452 23.3147 10.6667 26.6947 10.6667C28.3133 10.6667 29.1693 10.7867 29.5747 10.8413V14.6667H27.2693C25.8347 14.6667 25.3333 15.424 25.3333 16.9573V18.6667H29.5387L28.968 22.6667H25.3333V34.6667H32C33.4733 34.6667 34.6667 33.4733 34.6667 32V8C34.6667 6.52667 33.472 5.33333 32 5.33333Z" fill="white"/>
</svg>
