<svg width="40" height="40" viewBox="0 0 40 40" fill="none" xmlns="http://www.w3.org/2000/svg">
<path d="M37.3333 9.24933C36.0573 9.816 34.6867 10.1973 33.248 10.3693C34.7173 9.48933 35.844 8.096 36.3747 6.43467C35.0013 7.24933 33.4787 7.84133 31.8573 8.16133C30.56 6.77867 28.712 5.91467 26.6667 5.91467C22.7387 5.91467 19.5547 9.1 19.5547 13.0267C19.5547 13.584 19.6187 14.128 19.7387 14.6467C13.828 14.3507 8.58799 11.5187 5.07866 7.21467C4.468 8.26533 4.11733 9.48667 4.11733 10.792C4.11733 13.2587 5.37199 15.436 7.27999 16.7107C6.11466 16.6733 5.01733 16.3533 4.05866 15.8213C4.05866 15.852 4.05866 15.88 4.05866 15.9107C4.05866 19.3573 6.50933 22.232 9.76399 22.884C9.16799 23.0467 8.53866 23.1333 7.88933 23.1333C7.43199 23.1333 6.98533 23.088 6.55199 23.0067C7.45733 25.832 10.084 27.8893 13.196 27.9467C10.7627 29.8547 7.69599 30.992 4.36266 30.992C3.78933 30.992 3.22266 30.9587 2.66533 30.892C5.81333 32.9093 9.55066 34.0867 13.568 34.0867C26.6507 34.0867 33.8027 23.2493 33.8027 13.8507C33.8027 13.5427 33.796 13.236 33.7827 12.9307C35.1733 11.9267 36.38 10.6747 37.3333 9.24933Z" fill="white"/>
</svg>
