<svg width="40" height="40" viewBox="0 0 40 40" fill="none" xmlns="http://www.w3.org/2000/svg">
<path d="M32.8 3.2H7.2C4.992 3.2 3.2 4.992 3.2 7.2V32.8C3.2 35.008 4.992 36.8 7.2 36.8H32.8C35.008 36.8 36.8 35.008 36.8 32.8V7.2C36.8 4.992 35.008 3.2 32.8 3.2ZM13.6 16V31.2H8.8V16H13.6ZM8.8 11.576C8.8 10.456 9.76 9.6 11.2 9.6C12.64 9.6 13.544 10.456 13.6 11.576C13.6 12.696 12.704 13.6 11.2 13.6C9.76 13.6 8.8 12.696 8.8 11.576ZM31.2 31.2H26.4C26.4 31.2 26.4 23.792 26.4 23.2C26.4 21.6 25.6 20 23.6 19.968H23.536C21.6 19.968 20.8 21.616 20.8 23.2C20.8 23.928 20.8 31.2 20.8 31.2H16V16H20.8V18.048C20.8 18.048 22.344 16 25.448 16C28.624 16 31.2 18.184 31.2 22.608V31.2Z" fill="white"/>
</svg>
